<?xml version="1.0" encoding="UTF-8" standalone="no"?>
<svg
   xmlns:dc="http://purl.org/dc/elements/1.1/"
   xmlns:cc="http://creativecommons.org/ns#"
   xmlns:rdf="http://www.w3.org/1999/02/22-rdf-syntax-ns#"
   xmlns:svg="http://www.w3.org/2000/svg"
   xmlns="http://www.w3.org/2000/svg"
   xmlns:sodipodi="http://sodipodi.sourceforge.net/DTD/sodipodi-0.dtd"
   xmlns:inkscape="http://www.inkscape.org/namespaces/inkscape"
   version="1.1"
   x="0px"
   y="0px"
   viewBox="0 0 24 30"
   style="enable-background:new 0 0 24 24;"
   xml:space="preserve"
   id="svg3069"
   inkscape:version="0.48.5 r10040"
   width="100%"
   height="100%"
   sodipodi:docname="noun_209302_cc.svg"><metadata
     id="metadata3113"><rdf:RDF><cc:Work
         rdf:about=""><dc:format>image/svg+xml</dc:format><dc:type
           rdf:resource="http://purl.org/dc/dcmitype/StillImage" /><dc:title></dc:title></cc:Work></rdf:RDF></metadata><defs
     id="defs3111" /><sodipodi:namedview
     pagecolor="#ffffff"
     bordercolor="#666666"
     borderopacity="1"
     objecttolerance="10"
     gridtolerance="10"
     guidetolerance="10"
     inkscape:pageopacity="0"
     inkscape:pageshadow="2"
     inkscape:window-width="1213"
     inkscape:window-height="708"
     id="namedview3109"
     showgrid="false"
     inkscape:zoom="7.8666667"
     inkscape:cx="12"
     inkscape:cy="15"
     inkscape:window-x="2"
     inkscape:window-y="0"
     inkscape:window-maximized="0"
     inkscape:current-layer="svg3069" /><g
     id="g3071"><g
       id="g3073"><path
         d="M3,23.5c-0.276,0-0.5-0.224-0.5-0.5V1c0-0.276,0.224-0.5,0.5-0.5S3.5,0.724,3.5,1v22C3.5,23.276,3.276,23.5,3,23.5z"
         id="path3075" /></g><g
       id="g3077"><path
         d="M9,23.5c-0.276,0-0.5-0.224-0.5-0.5V1c0-0.276,0.224-0.5,0.5-0.5S9.5,0.724,9.5,1v22C9.5,23.276,9.276,23.5,9,23.5z"
         id="path3079" /></g><g
       id="g3081"><path
         d="M15,23.5c-0.276,0-0.5-0.224-0.5-0.5V1c0-0.276,0.224-0.5,0.5-0.5s0.5,0.224,0.5,0.5v22C15.5,23.276,15.276,23.5,15,23.5z    "
         id="path3083" /></g><g
       id="g3085"><path
         d="M21,23.5c-0.276,0-0.5-0.224-0.5-0.5V1c0-0.276,0.224-0.5,0.5-0.5s0.5,0.224,0.5,0.5v22C21.5,23.276,21.276,23.5,21,23.5z    "
         id="path3087" /></g><g
       id="g3089"><path
         d="M23,21.5H1c-0.276,0-0.5-0.224-0.5-0.5s0.224-0.5,0.5-0.5h22c0.276,0,0.5,0.224,0.5,0.5S23.276,21.5,23,21.5z"
         id="path3091" /></g><g
       id="g3093"><path
         d="M23,15.5H1c-0.276,0-0.5-0.224-0.5-0.5s0.224-0.5,0.5-0.5h22c0.276,0,0.5,0.224,0.5,0.5S23.276,15.5,23,15.5z"
         id="path3095" /></g><g
       id="g3097"><path
         d="M23,9.5H1C0.724,9.5,0.5,9.276,0.5,9S0.724,8.5,1,8.5h22c0.276,0,0.5,0.224,0.5,0.5S23.276,9.5,23,9.5z"
         id="path3099" /></g><g
       id="g3101"><path
         d="M23,3.5H1C0.724,3.5,0.5,3.276,0.5,3S0.724,2.5,1,2.5h22c0.276,0,0.5,0.224,0.5,0.5S23.276,3.5,23,3.5z"
         id="path3103" /></g></g></svg>